<svg xmlns="http://www.w3.org/2000/svg" width="120" height="22" viewBox="0 0 120 22">
  <g fill="none" fill-rule="evenodd">
    <path fill="#34C9BB" d="M13.916,17.388 L6.496,17.388 L5.264,21 L0.224,21 L7.476,1.344 L12.992,1.344 L20.244,21 L15.148,21 L13.916,17.388 Z M12.684,13.748 L10.22,6.468 L7.728,13.748 L12.684,13.748 Z M26.88,0.28 L26.88,21 L22.092,21 L22.092,0.28 L26.88,0.28 Z M39.032,16.884 L39.032,21 L36.876,21 C35.0466575,21 33.6233384,20.5473379 32.606,19.642 C31.5886616,18.7366621 31.08,17.2386771 31.08,15.148 L31.08,9.408 L28.98,9.408 L28.98,5.376 L31.08,5.376 L31.08,1.54 L35.868,1.54 L35.868,5.376 L39.004,5.376 L39.004,9.408 L35.868,9.408 L35.868,15.232 C35.868,15.8480031 35.9939987,16.2773321 36.246,16.52 C36.4980013,16.7626679 36.9226637,16.884 37.52,16.884 L39.032,16.884 Z"/>
    <path fill="#003945" d="M46.508,0.28 L46.508,21 L41.72,21 L41.72,0.28 L46.508,0.28 Z M55.748,5.18 C56.9426726,5.18 57.969329,5.45066396 58.828,5.992 C59.686671,6.53333604 60.3213313,7.270662 60.732,8.204 L60.732,5.376 L65.492,5.376 L65.492,21 L60.732,21 L60.732,18.172 C60.3213313,19.105338 59.686671,19.842664 58.828,20.384 C57.969329,20.925336 56.9426726,21.196 55.748,21.196 C54.4599936,21.196 53.3073384,20.8740032 52.29,20.23 C51.2726616,19.5859968 50.4700029,18.6573394 49.882,17.444 C49.2939971,16.2306606 49,14.8120081 49,13.188 C49,11.5453251 49.2939971,10.122006 49.882,8.918 C50.4700029,7.71399398 51.2726616,6.79000322 52.29,6.146 C53.3073384,5.50199678 54.4599936,5.18 55.748,5.18 Z M57.288,9.38 C56.2613282,9.38 55.4353365,9.71599664 54.81,10.388 C54.1846635,11.0600034 53.872,11.9933274 53.872,13.188 C53.872,14.3826726 54.1846635,15.3159966 54.81,15.988 C55.4353365,16.6600034 56.2613282,16.996 57.288,16.996 C58.296005,16.996 59.1219968,16.6506701 59.766,15.96 C60.4100032,15.2693299 60.732,14.3453391 60.732,13.188 C60.732,12.0119941 60.4100032,11.0833367 59.766,10.402 C59.1219968,9.72066326 58.296005,9.38 57.288,9.38 Z M78.708,5.208 C80.500009,5.208 81.9233281,5.80532736 82.978,7 C84.0326719,8.19467264 84.56,9.83732288 84.56,11.928 L84.56,21 L79.772,21 L79.772,12.488 C79.772,11.4426614 79.4966694,10.6260029 78.946,10.038 C78.3953306,9.44999706 77.6626712,9.156 76.748,9.156 C75.7773285,9.156 75.0073362,9.46399692 74.438,10.08 C73.8686638,10.6960031 73.584,11.5733276 73.584,12.712 L73.584,21 L68.796,21 L68.796,5.376 L73.584,5.376 L73.584,8.232 C74.0320022,7.298662 74.6993289,6.56133604 75.586,6.02 C76.4726711,5.47866396 77.5133274,5.208 78.708,5.208 Z M94.78,5.18 C96.7960101,5.18 98.4853265,5.73532778 99.848,6.846 C101.210673,7.95667222 102.069332,9.48265696 102.424,11.424 L97.356,11.424 C97.2066659,10.7519966 96.898669,10.2293352 96.432,9.856 C95.965331,9.4826648 95.3773369,9.296 94.668,9.296 C93.8279958,9.296 93.137336,9.62733002 92.596,10.29 C92.054664,10.95267 91.784,11.9186603 91.784,13.188 C91.784,14.4573397 92.054664,15.42333 92.596,16.086 C93.137336,16.74867 93.8279958,17.08 94.668,17.08 C95.3773369,17.08 95.965331,16.8933352 96.432,16.52 C96.898669,16.1466648 97.2066659,15.6240034 97.356,14.952 L102.424,14.952 C102.069332,16.893343 101.210673,18.4193278 99.848,19.53 C98.4853265,20.6406722 96.7960101,21.196 94.78,21.196 C93.2493257,21.196 91.8913393,20.8740032 90.706,20.23 C89.5206607,19.5859968 88.5920034,18.6573394 87.92,17.444 C87.2479966,16.2306606 86.912,14.8120081 86.912,13.188 C86.912,11.5453251 87.24333,10.122006 87.906,8.918 C88.56867,7.71399398 89.4973274,6.79000322 90.692,6.146 C91.8866726,5.50199678 93.2493257,5.18 94.78,5.18 Z M119.756,12.768 C119.756,13.160002 119.709334,13.589331 119.616,14.056 L108.78,14.056 C108.836,15.2320059 109.134664,16.0766641 109.676,16.59 C110.217336,17.1033359 110.907996,17.36 111.748,17.36 C112.457337,17.36 113.045331,17.1826684 113.512,16.828 C113.978669,16.4733316 114.286666,16.0160028 114.436,15.456 L119.504,15.456 C119.298666,16.5573388 118.85067,17.5419957 118.16,18.41 C117.46933,19.2780043 116.592005,19.9593309 115.528,20.454 C114.463995,20.9486691 113.278673,21.196 111.972,21.196 C110.441326,21.196 109.083339,20.8740032 107.898,20.23 C106.712661,19.5859968 105.784003,18.6573394 105.112,17.444 C104.439997,16.2306606 104.104,14.8120081 104.104,13.188 C104.104,11.5453251 104.43533,10.122006 105.098,8.918 C105.76067,7.71399398 106.689327,6.79000322 107.884,6.146 C109.078673,5.50199678 110.441326,5.18 111.972,5.18 C113.521341,5.18 114.883994,5.49733016 116.06,6.132 C117.236006,6.76666984 118.145997,7.65799426 118.79,8.806 C119.434003,9.95400574 119.756,11.2746592 119.756,12.768 Z M114.912,12.04 C114.930667,11.0133282 114.655336,10.2433359 114.086,9.73 C113.516664,9.2166641 112.812004,8.96 111.972,8.96 C111.094662,8.96 110.36667,9.22133072 109.788,9.744 C109.20933,10.2666693 108.882667,11.031995 108.808,12.04 L114.912,12.04 Z"/>
  </g>
</svg>
